<mxfile host="65bd71144e">
    <diagram name="split_none" id="9LHPZ2SQCOofinPmpiE2">
        <mxGraphModel dx="822" dy="531" grid="1" gridSize="10" guides="1" tooltips="1" connect="1" arrows="1" fold="1" page="1" pageScale="1" pageWidth="827" pageHeight="1169" background="#ffffff" math="0" shadow="0">
            <root>
                <mxCell id="kwRkHTfesepw6fDbj70F-0"/>
                <mxCell id="kwRkHTfesepw6fDbj70F-1" parent="kwRkHTfesepw6fDbj70F-0"/>
                <mxCell id="NMvhGol_J3JoLe8ldsDr-25" value="&lt;p style=&quot;margin: 0px; font-variant-numeric: normal; font-variant-east-asian: normal; font-variant-alternates: normal; font-kerning: auto; font-optical-sizing: auto; font-feature-settings: normal; font-variation-settings: normal; font-stretch: normal; font-size: 13px; line-height: normal; font-family: &amp;quot;Helvetica Neue&amp;quot;;&quot; class=&quot;p1&quot;&gt;172.22.10.13&lt;/p&gt;" style="text;html=1;strokeColor=none;fillColor=none;align=left;verticalAlign=middle;whiteSpace=wrap;rounded=0;fontColor=#000000;" parent="kwRkHTfesepw6fDbj70F-1" vertex="1">
                    <mxGeometry x="274" y="242" width="140" height="30" as="geometry"/>
                </mxCell>
                <mxCell id="NMvhGol_J3JoLe8ldsDr-26" value="&lt;span&gt;UPF&lt;/span&gt;" style="rounded=1;whiteSpace=wrap;html=1;strokeColor=#000000;strokeWidth=1;fontColor=#000000;fillColor=none;align=left;verticalAlign=top;fontStyle=1" parent="kwRkHTfesepw6fDbj70F-1" vertex="1">
                    <mxGeometry x="235" y="210" width="78" height="32" as="geometry"/>
                </mxCell>
                <mxCell id="NMvhGol_J3JoLe8ldsDr-27" value="&lt;p class=&quot;p1&quot;&gt;&lt;span style=&quot;background-color: initial;&quot;&gt;172.22.10.22&lt;/span&gt;&lt;/p&gt;" style="text;whiteSpace=wrap;html=1;fontColor=#000000;" parent="kwRkHTfesepw6fDbj70F-1" vertex="1">
                    <mxGeometry x="151" y="336" width="169" height="45" as="geometry"/>
                </mxCell>
                <mxCell id="NMvhGol_J3JoLe8ldsDr-30" style="edgeStyle=none;html=1;entryX=0.5;entryY=1;entryDx=0;entryDy=0;fontColor=#000000;strokeColor=#000000;endArrow=none;endFill=0;" parent="kwRkHTfesepw6fDbj70F-1" source="NMvhGol_J3JoLe8ldsDr-28" target="NMvhGol_J3JoLe8ldsDr-26" edge="1">
                    <mxGeometry relative="1" as="geometry"/>
                </mxCell>
                <mxCell id="NMvhGol_J3JoLe8ldsDr-28" value="&lt;span&gt;GNB&lt;/span&gt;" style="rounded=1;whiteSpace=wrap;html=1;strokeColor=#000000;strokeWidth=1;fontColor=#000000;fillColor=none;align=left;verticalAlign=top;fontStyle=1" parent="kwRkHTfesepw6fDbj70F-1" vertex="1">
                    <mxGeometry x="235" y="347" width="78" height="32" as="geometry"/>
                </mxCell>
                <mxCell id="NMvhGol_J3JoLe8ldsDr-31" value="&lt;p style=&quot;margin: 0px; font-variant-numeric: normal; font-variant-east-asian: normal; font-variant-alternates: normal; font-kerning: auto; font-optical-sizing: auto; font-feature-settings: normal; font-variation-settings: normal; font-stretch: normal; font-size: 13px; line-height: normal; font-family: &amp;quot;Helvetica Neue&amp;quot;;&quot; class=&quot;p1&quot;&gt;N3&lt;/p&gt;" style="text;html=1;strokeColor=none;fillColor=none;align=left;verticalAlign=middle;whiteSpace=wrap;rounded=0;fontColor=#000000;" parent="kwRkHTfesepw6fDbj70F-1" vertex="1">
                    <mxGeometry x="274" y="278" width="40" height="30" as="geometry"/>
                </mxCell>
                <mxCell id="NMvhGol_J3JoLe8ldsDr-32" value="&lt;p style=&quot;margin: 0px; font-variant-numeric: normal; font-variant-east-asian: normal; font-variant-alternates: normal; font-kerning: auto; font-optical-sizing: auto; font-feature-settings: normal; font-variation-settings: normal; font-stretch: normal; font-size: 13px; line-height: normal; font-family: &amp;quot;Helvetica Neue&amp;quot;;&quot; class=&quot;p1&quot;&gt;&lt;span style=&quot;font-family: Helvetica; font-size: 12px;&quot;&gt;172.22.10.23&lt;/span&gt;&lt;br&gt;&lt;/p&gt;" style="text;html=1;strokeColor=none;fillColor=none;align=left;verticalAlign=middle;whiteSpace=wrap;rounded=0;fontColor=#000000;" parent="kwRkHTfesepw6fDbj70F-1" vertex="1">
                    <mxGeometry x="274" y="317" width="140" height="30" as="geometry"/>
                </mxCell>
                <mxCell id="NMvhGol_J3JoLe8ldsDr-34" style="edgeStyle=none;html=1;entryX=0;entryY=0.5;entryDx=0;entryDy=0;strokeColor=#000000;fontColor=#000000;endArrow=none;endFill=0;" parent="kwRkHTfesepw6fDbj70F-1" source="NMvhGol_J3JoLe8ldsDr-33" target="NMvhGol_J3JoLe8ldsDr-28" edge="1">
                    <mxGeometry relative="1" as="geometry"/>
                </mxCell>
                <mxCell id="NMvhGol_J3JoLe8ldsDr-33" value="&lt;span&gt;AMF&lt;/span&gt;" style="rounded=1;whiteSpace=wrap;html=1;strokeColor=#000000;strokeWidth=1;fontColor=#000000;fillColor=none;align=left;verticalAlign=top;fontStyle=1" parent="kwRkHTfesepw6fDbj70F-1" vertex="1">
                    <mxGeometry x="54" y="210" width="78" height="32" as="geometry"/>
                </mxCell>
                <mxCell id="NMvhGol_J3JoLe8ldsDr-35" value="&lt;p style=&quot;margin: 0px; font-variant-numeric: normal; font-variant-east-asian: normal; font-variant-alternates: normal; font-kerning: auto; font-optical-sizing: auto; font-feature-settings: normal; font-variation-settings: normal; font-stretch: normal; font-size: 13px; line-height: normal; font-family: &amp;quot;Helvetica Neue&amp;quot;;&quot; class=&quot;p1&quot;&gt;172.22.10.12&lt;/p&gt;" style="text;html=1;strokeColor=none;fillColor=none;align=left;verticalAlign=middle;whiteSpace=wrap;rounded=0;fontColor=#000000;" parent="kwRkHTfesepw6fDbj70F-1" vertex="1">
                    <mxGeometry x="23" y="240" width="140" height="30" as="geometry"/>
                </mxCell>
                <mxCell id="NMvhGol_J3JoLe8ldsDr-36" value="&lt;p style=&quot;margin: 0px; font-variant-numeric: normal; font-variant-east-asian: normal; font-variant-alternates: normal; font-kerning: auto; font-optical-sizing: auto; font-feature-settings: normal; font-variation-settings: normal; font-stretch: normal; font-size: 13px; line-height: normal; font-family: &amp;quot;Helvetica Neue&amp;quot;;&quot; class=&quot;p1&quot;&gt;N2&lt;/p&gt;" style="text;html=1;strokeColor=none;fillColor=none;align=left;verticalAlign=middle;whiteSpace=wrap;rounded=0;fontColor=#000000;" parent="kwRkHTfesepw6fDbj70F-1" vertex="1">
                    <mxGeometry x="134" y="278" width="40" height="30" as="geometry"/>
                </mxCell>
            </root>
        </mxGraphModel>
    </diagram>
    <diagram name="split_f1" id="3BSUjhF1nHpaO8DYCq_M">
        <mxGraphModel dx="822" dy="531" grid="1" gridSize="10" guides="1" tooltips="1" connect="1" arrows="1" fold="1" page="1" pageScale="1" pageWidth="827" pageHeight="1169" background="#ffffff" math="0" shadow="0">
            <root>
                <mxCell id="LBBj9ylhm5maZAJQp9fR-0"/>
                <mxCell id="LBBj9ylhm5maZAJQp9fR-1" parent="LBBj9ylhm5maZAJQp9fR-0"/>
                <mxCell id="LBBj9ylhm5maZAJQp9fR-13" value="&lt;p style=&quot;margin: 0px; font-variant-numeric: normal; font-variant-east-asian: normal; font-variant-alternates: normal; font-kerning: auto; font-optical-sizing: auto; font-feature-settings: normal; font-variation-settings: normal; font-stretch: normal; font-size: 13px; line-height: normal; font-family: &amp;quot;Helvetica Neue&amp;quot;;&quot; class=&quot;p1&quot;&gt;172.22.10.13&lt;/p&gt;" style="text;html=1;strokeColor=none;fillColor=none;align=left;verticalAlign=middle;whiteSpace=wrap;rounded=0;fontColor=#000000;" vertex="1" parent="LBBj9ylhm5maZAJQp9fR-1">
                    <mxGeometry x="281" y="492" width="140" height="30" as="geometry"/>
                </mxCell>
                <mxCell id="LBBj9ylhm5maZAJQp9fR-14" value="&lt;span&gt;UPF&lt;/span&gt;" style="rounded=1;whiteSpace=wrap;html=1;strokeColor=#000000;strokeWidth=1;fontColor=#000000;fillColor=none;align=left;verticalAlign=top;fontStyle=1" vertex="1" parent="LBBj9ylhm5maZAJQp9fR-1">
                    <mxGeometry x="242" y="460" width="78" height="32" as="geometry"/>
                </mxCell>
                <mxCell id="LBBj9ylhm5maZAJQp9fR-15" style="edgeStyle=none;html=1;entryX=1;entryY=0.5;entryDx=0;entryDy=0;strokeColor=#000000;fontColor=#000000;endArrow=none;endFill=0;rounded=0;" edge="1" parent="LBBj9ylhm5maZAJQp9fR-1" source="LBBj9ylhm5maZAJQp9fR-16" target="LBBj9ylhm5maZAJQp9fR-25">
                    <mxGeometry relative="1" as="geometry">
                        <Array as="points">
                            <mxPoint x="450" y="610"/>
                            <mxPoint x="450" y="670"/>
                            <mxPoint x="450" y="736"/>
                        </Array>
                    </mxGeometry>
                </mxCell>
                <mxCell id="LBBj9ylhm5maZAJQp9fR-16" value="&lt;p class=&quot;p1&quot;&gt;&lt;span style=&quot;background-color: initial;&quot;&gt;172.22.10.22&lt;/span&gt;&lt;/p&gt;" style="text;whiteSpace=wrap;html=1;fontColor=#000000;" vertex="1" parent="LBBj9ylhm5maZAJQp9fR-1">
                    <mxGeometry x="158" y="586" width="162" height="45" as="geometry"/>
                </mxCell>
                <mxCell id="LBBj9ylhm5maZAJQp9fR-17" style="edgeStyle=none;html=1;entryX=0.5;entryY=1;entryDx=0;entryDy=0;fontColor=#000000;strokeColor=#000000;endArrow=none;endFill=0;" edge="1" parent="LBBj9ylhm5maZAJQp9fR-1" source="LBBj9ylhm5maZAJQp9fR-18" target="LBBj9ylhm5maZAJQp9fR-14">
                    <mxGeometry relative="1" as="geometry"/>
                </mxCell>
                <mxCell id="LBBj9ylhm5maZAJQp9fR-18" value="&lt;span&gt;CU&lt;/span&gt;" style="rounded=1;whiteSpace=wrap;html=1;strokeColor=#000000;strokeWidth=1;fontColor=#000000;fillColor=none;align=left;verticalAlign=top;fontStyle=1" vertex="1" parent="LBBj9ylhm5maZAJQp9fR-1">
                    <mxGeometry x="242" y="597" width="78" height="32" as="geometry"/>
                </mxCell>
                <mxCell id="LBBj9ylhm5maZAJQp9fR-19" value="&lt;p style=&quot;margin: 0px; font-variant-numeric: normal; font-variant-east-asian: normal; font-variant-alternates: normal; font-kerning: auto; font-optical-sizing: auto; font-feature-settings: normal; font-variation-settings: normal; font-stretch: normal; font-size: 13px; line-height: normal; font-family: &amp;quot;Helvetica Neue&amp;quot;;&quot; class=&quot;p1&quot;&gt;N3&lt;/p&gt;" style="text;html=1;strokeColor=none;fillColor=none;align=left;verticalAlign=middle;whiteSpace=wrap;rounded=0;fontColor=#000000;" vertex="1" parent="LBBj9ylhm5maZAJQp9fR-1">
                    <mxGeometry x="281" y="528" width="40" height="30" as="geometry"/>
                </mxCell>
                <mxCell id="LBBj9ylhm5maZAJQp9fR-20" value="&lt;p style=&quot;margin: 0px; font-variant-numeric: normal; font-variant-east-asian: normal; font-variant-alternates: normal; font-kerning: auto; font-optical-sizing: auto; font-feature-settings: normal; font-variation-settings: normal; font-stretch: normal; font-size: 13px; line-height: normal; font-family: &amp;quot;Helvetica Neue&amp;quot;;&quot; class=&quot;p1&quot;&gt;&lt;span style=&quot;font-family: Helvetica; font-size: 12px;&quot;&gt;172.22.10.23&lt;/span&gt;&lt;br&gt;&lt;/p&gt;" style="text;html=1;strokeColor=none;fillColor=none;align=left;verticalAlign=middle;whiteSpace=wrap;rounded=0;fontColor=#000000;" vertex="1" parent="LBBj9ylhm5maZAJQp9fR-1">
                    <mxGeometry x="281" y="567" width="140" height="30" as="geometry"/>
                </mxCell>
                <mxCell id="LBBj9ylhm5maZAJQp9fR-21" style="edgeStyle=none;html=1;entryX=0;entryY=0.5;entryDx=0;entryDy=0;strokeColor=#000000;fontColor=#000000;endArrow=none;endFill=0;" edge="1" parent="LBBj9ylhm5maZAJQp9fR-1" source="LBBj9ylhm5maZAJQp9fR-22" target="LBBj9ylhm5maZAJQp9fR-18">
                    <mxGeometry relative="1" as="geometry"/>
                </mxCell>
                <mxCell id="LBBj9ylhm5maZAJQp9fR-22" value="&lt;span&gt;AMF&lt;/span&gt;" style="rounded=1;whiteSpace=wrap;html=1;strokeColor=#000000;strokeWidth=1;fontColor=#000000;fillColor=none;align=left;verticalAlign=top;fontStyle=1" vertex="1" parent="LBBj9ylhm5maZAJQp9fR-1">
                    <mxGeometry x="61" y="460" width="78" height="32" as="geometry"/>
                </mxCell>
                <mxCell id="LBBj9ylhm5maZAJQp9fR-23" value="&lt;p style=&quot;margin: 0px; font-variant-numeric: normal; font-variant-east-asian: normal; font-variant-alternates: normal; font-kerning: auto; font-optical-sizing: auto; font-feature-settings: normal; font-variation-settings: normal; font-stretch: normal; font-size: 13px; line-height: normal; font-family: &amp;quot;Helvetica Neue&amp;quot;;&quot; class=&quot;p1&quot;&gt;172.22.10.12&lt;/p&gt;" style="text;html=1;strokeColor=none;fillColor=none;align=left;verticalAlign=middle;whiteSpace=wrap;rounded=0;fontColor=#000000;" vertex="1" parent="LBBj9ylhm5maZAJQp9fR-1">
                    <mxGeometry x="30" y="490" width="140" height="30" as="geometry"/>
                </mxCell>
                <mxCell id="LBBj9ylhm5maZAJQp9fR-24" value="&lt;p style=&quot;margin: 0px; font-variant-numeric: normal; font-variant-east-asian: normal; font-variant-alternates: normal; font-kerning: auto; font-optical-sizing: auto; font-feature-settings: normal; font-variation-settings: normal; font-stretch: normal; font-size: 13px; line-height: normal; font-family: &amp;quot;Helvetica Neue&amp;quot;;&quot; class=&quot;p1&quot;&gt;N2&lt;/p&gt;" style="text;html=1;strokeColor=none;fillColor=none;align=left;verticalAlign=middle;whiteSpace=wrap;rounded=0;fontColor=#000000;" vertex="1" parent="LBBj9ylhm5maZAJQp9fR-1">
                    <mxGeometry x="141" y="528" width="40" height="30" as="geometry"/>
                </mxCell>
                <mxCell id="LBBj9ylhm5maZAJQp9fR-25" value="&lt;span&gt;DU&lt;/span&gt;" style="rounded=1;whiteSpace=wrap;html=1;strokeColor=#000000;strokeWidth=1;fontColor=#000000;fillColor=none;align=left;verticalAlign=top;fontStyle=1" vertex="1" parent="LBBj9ylhm5maZAJQp9fR-1">
                    <mxGeometry x="242" y="720" width="78" height="32" as="geometry"/>
                </mxCell>
                <mxCell id="LBBj9ylhm5maZAJQp9fR-26" value="&lt;p style=&quot;margin: 0px; font-variant-numeric: normal; font-variant-east-asian: normal; font-variant-alternates: normal; font-kerning: auto; font-optical-sizing: auto; font-feature-settings: normal; font-variation-settings: normal; font-stretch: normal; font-size: 13px; line-height: normal; font-family: &amp;quot;Helvetica Neue&amp;quot;;&quot; class=&quot;p1&quot;&gt;F1&lt;/p&gt;" style="text;html=1;strokeColor=none;fillColor=none;align=left;verticalAlign=middle;whiteSpace=wrap;rounded=0;fontColor=#000000;" vertex="1" parent="LBBj9ylhm5maZAJQp9fR-1">
                    <mxGeometry x="455" y="660" width="40" height="30" as="geometry"/>
                </mxCell>
                <mxCell id="LBBj9ylhm5maZAJQp9fR-27" value="&lt;p class=&quot;p1&quot;&gt;172.22.10.31&lt;/p&gt;" style="text;whiteSpace=wrap;html=1;fontColor=#000000;" vertex="1" parent="LBBj9ylhm5maZAJQp9fR-1">
                    <mxGeometry x="320" y="577" width="100" height="40" as="geometry"/>
                </mxCell>
                <mxCell id="LBBj9ylhm5maZAJQp9fR-28" value="&lt;p class=&quot;p1&quot;&gt;172.22.10.34&lt;/p&gt;" style="text;whiteSpace=wrap;html=1;fontColor=#000000;" vertex="1" parent="LBBj9ylhm5maZAJQp9fR-1">
                    <mxGeometry x="320" y="700" width="100" height="60" as="geometry"/>
                </mxCell>
            </root>
        </mxGraphModel>
    </diagram>
    <diagram name="split_f1_e1" id="ugKXxRCyNd3n2vM72W9c">
        <mxGraphModel dx="822" dy="531" grid="1" gridSize="10" guides="1" tooltips="1" connect="1" arrows="1" fold="1" page="1" pageScale="1" pageWidth="827" pageHeight="1169" background="#ffffff" math="0" shadow="0">
            <root>
                <mxCell id="5W0y0oNY_3AZGyrUhkyF-0"/>
                <mxCell id="5W0y0oNY_3AZGyrUhkyF-1" parent="5W0y0oNY_3AZGyrUhkyF-0"/>
                <mxCell id="5W0y0oNY_3AZGyrUhkyF-29" value="&lt;p style=&quot;margin: 0px; font-variant-numeric: normal; font-variant-east-asian: normal; font-variant-alternates: normal; font-kerning: auto; font-optical-sizing: auto; font-feature-settings: normal; font-variation-settings: normal; font-stretch: normal; font-size: 13px; line-height: normal; font-family: &amp;quot;Helvetica Neue&amp;quot;;&quot; class=&quot;p1&quot;&gt;172.22.10.13&lt;/p&gt;" style="text;html=1;strokeColor=none;fillColor=none;align=left;verticalAlign=middle;whiteSpace=wrap;rounded=0;fontColor=#000000;" vertex="1" parent="5W0y0oNY_3AZGyrUhkyF-1">
                    <mxGeometry x="291" y="912" width="140" height="30" as="geometry"/>
                </mxCell>
                <mxCell id="5W0y0oNY_3AZGyrUhkyF-30" value="&lt;span&gt;UPF&lt;/span&gt;" style="rounded=1;whiteSpace=wrap;html=1;strokeColor=#000000;strokeWidth=1;fontColor=#000000;fillColor=none;align=left;verticalAlign=top;fontStyle=1" vertex="1" parent="5W0y0oNY_3AZGyrUhkyF-1">
                    <mxGeometry x="252" y="880" width="78" height="32" as="geometry"/>
                </mxCell>
                <mxCell id="5W0y0oNY_3AZGyrUhkyF-31" style="edgeStyle=none;html=1;entryX=1;entryY=0.5;entryDx=0;entryDy=0;strokeColor=#000000;fontColor=#000000;endArrow=none;endFill=0;rounded=0;" edge="1" parent="5W0y0oNY_3AZGyrUhkyF-1" target="5W0y0oNY_3AZGyrUhkyF-41">
                    <mxGeometry relative="1" as="geometry">
                        <Array as="points">
                            <mxPoint x="460" y="1030"/>
                            <mxPoint x="460" y="1090"/>
                            <mxPoint x="460" y="1196"/>
                        </Array>
                        <mxPoint x="330" y="1029.0758293838862" as="sourcePoint"/>
                    </mxGeometry>
                </mxCell>
                <mxCell id="5W0y0oNY_3AZGyrUhkyF-32" style="edgeStyle=none;html=1;entryX=0.5;entryY=1;entryDx=0;entryDy=0;fontColor=#000000;strokeColor=#000000;endArrow=none;endFill=0;" edge="1" parent="5W0y0oNY_3AZGyrUhkyF-1" source="5W0y0oNY_3AZGyrUhkyF-34" target="5W0y0oNY_3AZGyrUhkyF-30">
                    <mxGeometry relative="1" as="geometry"/>
                </mxCell>
                <mxCell id="5W0y0oNY_3AZGyrUhkyF-33" style="edgeStyle=none;rounded=0;html=1;strokeColor=#000000;fontColor=#000000;endArrow=none;endFill=0;" edge="1" parent="5W0y0oNY_3AZGyrUhkyF-1" source="5W0y0oNY_3AZGyrUhkyF-34">
                    <mxGeometry relative="1" as="geometry">
                        <mxPoint x="291" y="1117" as="targetPoint"/>
                    </mxGeometry>
                </mxCell>
                <mxCell id="5W0y0oNY_3AZGyrUhkyF-34" value="&lt;span&gt;CU-UP&lt;/span&gt;" style="rounded=1;whiteSpace=wrap;html=1;strokeColor=#000000;strokeWidth=1;fontColor=#000000;fillColor=none;align=left;verticalAlign=top;fontStyle=1" vertex="1" parent="5W0y0oNY_3AZGyrUhkyF-1">
                    <mxGeometry x="252" y="1017" width="78" height="32" as="geometry"/>
                </mxCell>
                <mxCell id="5W0y0oNY_3AZGyrUhkyF-35" value="&lt;p style=&quot;margin: 0px; font-variant-numeric: normal; font-variant-east-asian: normal; font-variant-alternates: normal; font-kerning: auto; font-optical-sizing: auto; font-feature-settings: normal; font-variation-settings: normal; font-stretch: normal; font-size: 13px; line-height: normal; font-family: &amp;quot;Helvetica Neue&amp;quot;;&quot; class=&quot;p1&quot;&gt;N3&lt;/p&gt;" style="text;html=1;strokeColor=none;fillColor=none;align=left;verticalAlign=middle;whiteSpace=wrap;rounded=0;fontColor=#000000;" vertex="1" parent="5W0y0oNY_3AZGyrUhkyF-1">
                    <mxGeometry x="291" y="948" width="40" height="30" as="geometry"/>
                </mxCell>
                <mxCell id="5W0y0oNY_3AZGyrUhkyF-36" value="&lt;p style=&quot;margin: 0px; font-variant-numeric: normal; font-variant-east-asian: normal; font-variant-alternates: normal; font-kerning: auto; font-optical-sizing: auto; font-feature-settings: normal; font-variation-settings: normal; font-stretch: normal; font-size: 13px; line-height: normal; font-family: &amp;quot;Helvetica Neue&amp;quot;;&quot; class=&quot;p1&quot;&gt;&lt;span style=&quot;font-family: Helvetica; font-size: 12px;&quot;&gt;172.22.10.23&lt;/span&gt;&lt;br&gt;&lt;/p&gt;" style="text;html=1;strokeColor=none;fillColor=none;align=left;verticalAlign=middle;whiteSpace=wrap;rounded=0;fontColor=#000000;" vertex="1" parent="5W0y0oNY_3AZGyrUhkyF-1">
                    <mxGeometry x="291" y="987" width="140" height="30" as="geometry"/>
                </mxCell>
                <mxCell id="5W0y0oNY_3AZGyrUhkyF-37" style="edgeStyle=none;html=1;entryX=0;entryY=0.5;entryDx=0;entryDy=0;strokeColor=#000000;fontColor=#000000;endArrow=none;endFill=0;" edge="1" parent="5W0y0oNY_3AZGyrUhkyF-1" source="5W0y0oNY_3AZGyrUhkyF-38" target="5W0y0oNY_3AZGyrUhkyF-46">
                    <mxGeometry relative="1" as="geometry">
                        <Array as="points"/>
                    </mxGeometry>
                </mxCell>
                <mxCell id="5W0y0oNY_3AZGyrUhkyF-38" value="&lt;span&gt;AMF&lt;/span&gt;" style="rounded=1;whiteSpace=wrap;html=1;strokeColor=#000000;strokeWidth=1;fontColor=#000000;fillColor=none;align=left;verticalAlign=top;fontStyle=1" vertex="1" parent="5W0y0oNY_3AZGyrUhkyF-1">
                    <mxGeometry x="71" y="880" width="78" height="32" as="geometry"/>
                </mxCell>
                <mxCell id="5W0y0oNY_3AZGyrUhkyF-39" value="&lt;p style=&quot;margin: 0px; font-variant-numeric: normal; font-variant-east-asian: normal; font-variant-alternates: normal; font-kerning: auto; font-optical-sizing: auto; font-feature-settings: normal; font-variation-settings: normal; font-stretch: normal; font-size: 13px; line-height: normal; font-family: &amp;quot;Helvetica Neue&amp;quot;;&quot; class=&quot;p1&quot;&gt;172.22.10.12&lt;/p&gt;" style="text;html=1;strokeColor=none;fillColor=none;align=left;verticalAlign=middle;whiteSpace=wrap;rounded=0;fontColor=#000000;" vertex="1" parent="5W0y0oNY_3AZGyrUhkyF-1">
                    <mxGeometry x="40" y="910" width="140" height="30" as="geometry"/>
                </mxCell>
                <mxCell id="5W0y0oNY_3AZGyrUhkyF-40" value="&lt;p style=&quot;margin: 0px; font-variant-numeric: normal; font-variant-east-asian: normal; font-variant-alternates: normal; font-kerning: auto; font-optical-sizing: auto; font-feature-settings: normal; font-variation-settings: normal; font-stretch: normal; font-size: 13px; line-height: normal; font-family: &amp;quot;Helvetica Neue&amp;quot;;&quot; class=&quot;p1&quot;&gt;N2&lt;/p&gt;" style="text;html=1;strokeColor=none;fillColor=none;align=left;verticalAlign=middle;whiteSpace=wrap;rounded=0;fontColor=#000000;" vertex="1" parent="5W0y0oNY_3AZGyrUhkyF-1">
                    <mxGeometry x="159" y="1008" width="40" height="30" as="geometry"/>
                </mxCell>
                <mxCell id="5W0y0oNY_3AZGyrUhkyF-41" value="&lt;span&gt;DU&lt;/span&gt;" style="rounded=1;whiteSpace=wrap;html=1;strokeColor=#000000;strokeWidth=1;fontColor=#000000;fillColor=none;align=left;verticalAlign=top;fontStyle=1" vertex="1" parent="5W0y0oNY_3AZGyrUhkyF-1">
                    <mxGeometry x="252" y="1180" width="78" height="32" as="geometry"/>
                </mxCell>
                <mxCell id="5W0y0oNY_3AZGyrUhkyF-42" value="&lt;p style=&quot;margin: 0px; font-variant-numeric: normal; font-variant-east-asian: normal; font-variant-alternates: normal; font-kerning: auto; font-optical-sizing: auto; font-feature-settings: normal; font-variation-settings: normal; font-stretch: normal; font-size: 13px; line-height: normal; font-family: &amp;quot;Helvetica Neue&amp;quot;;&quot; class=&quot;p1&quot;&gt;F1&lt;/p&gt;" style="text;html=1;strokeColor=none;fillColor=none;align=left;verticalAlign=middle;whiteSpace=wrap;rounded=0;fontColor=#000000;" vertex="1" parent="5W0y0oNY_3AZGyrUhkyF-1">
                    <mxGeometry x="465" y="1080" width="40" height="30" as="geometry"/>
                </mxCell>
                <mxCell id="5W0y0oNY_3AZGyrUhkyF-43" value="&lt;p class=&quot;p1&quot;&gt;172.22.10.32&lt;/p&gt;" style="text;whiteSpace=wrap;html=1;fontColor=#000000;" vertex="1" parent="5W0y0oNY_3AZGyrUhkyF-1">
                    <mxGeometry x="330" y="997" width="100" height="40" as="geometry"/>
                </mxCell>
                <mxCell id="5W0y0oNY_3AZGyrUhkyF-44" value="&lt;p class=&quot;p1&quot;&gt;172.22.10.34&lt;/p&gt;" style="text;whiteSpace=wrap;html=1;fontColor=#000000;" vertex="1" parent="5W0y0oNY_3AZGyrUhkyF-1">
                    <mxGeometry x="330" y="1180" width="100" height="60" as="geometry"/>
                </mxCell>
                <mxCell id="5W0y0oNY_3AZGyrUhkyF-45" style="edgeStyle=none;rounded=0;html=1;strokeColor=#000000;fontColor=#000000;endArrow=none;endFill=0;" edge="1" parent="5W0y0oNY_3AZGyrUhkyF-1" source="5W0y0oNY_3AZGyrUhkyF-46">
                    <mxGeometry relative="1" as="geometry">
                        <mxPoint x="460" y="1134" as="targetPoint"/>
                    </mxGeometry>
                </mxCell>
                <mxCell id="5W0y0oNY_3AZGyrUhkyF-46" value="&lt;span&gt;CU-CP&lt;/span&gt;" style="rounded=1;whiteSpace=wrap;html=1;strokeColor=#000000;strokeWidth=1;fontColor=#000000;fillColor=none;align=left;verticalAlign=top;fontStyle=1" vertex="1" parent="5W0y0oNY_3AZGyrUhkyF-1">
                    <mxGeometry x="252" y="1117" width="78" height="32" as="geometry"/>
                </mxCell>
                <mxCell id="5W0y0oNY_3AZGyrUhkyF-47" value="&lt;p class=&quot;p1&quot;&gt;172.22.10.31&lt;/p&gt;" style="text;whiteSpace=wrap;html=1;fontColor=#000000;" vertex="1" parent="5W0y0oNY_3AZGyrUhkyF-1">
                    <mxGeometry x="330" y="1117" width="100" height="40" as="geometry"/>
                </mxCell>
                <mxCell id="5W0y0oNY_3AZGyrUhkyF-48" value="&lt;p class=&quot;p1&quot;&gt;&lt;span style=&quot;background-color: initial;&quot;&gt;172.22.10.22&lt;/span&gt;&lt;/p&gt;" style="text;whiteSpace=wrap;html=1;fontColor=#000000;" vertex="1" parent="5W0y0oNY_3AZGyrUhkyF-1">
                    <mxGeometry x="168" y="1105" width="162" height="45" as="geometry"/>
                </mxCell>
                <mxCell id="5W0y0oNY_3AZGyrUhkyF-49" value="&lt;p style=&quot;margin: 0px; font-variant-numeric: normal; font-variant-east-asian: normal; font-variant-alternates: normal; font-kerning: auto; font-optical-sizing: auto; font-feature-settings: normal; font-variation-settings: normal; font-stretch: normal; font-size: 13px; line-height: normal; font-family: &amp;quot;Helvetica Neue&amp;quot;;&quot; class=&quot;p1&quot;&gt;E1&lt;/p&gt;" style="text;html=1;strokeColor=none;fillColor=none;align=left;verticalAlign=middle;whiteSpace=wrap;rounded=0;fontColor=#000000;" vertex="1" parent="5W0y0oNY_3AZGyrUhkyF-1">
                    <mxGeometry x="273" y="1068" width="40" height="30" as="geometry"/>
                </mxCell>
                <mxCell id="5W0y0oNY_3AZGyrUhkyF-50" value="&lt;p class=&quot;p1&quot;&gt;172.22.10.42&lt;/p&gt;" style="text;whiteSpace=wrap;html=1;fontColor=#000000;" vertex="1" parent="5W0y0oNY_3AZGyrUhkyF-1">
                    <mxGeometry x="292" y="1030" width="100" height="40" as="geometry"/>
                </mxCell>
                <mxCell id="5W0y0oNY_3AZGyrUhkyF-51" value="&lt;p class=&quot;p1&quot;&gt;172.22.10.41&lt;/p&gt;" style="text;whiteSpace=wrap;html=1;fontColor=#000000;" vertex="1" parent="5W0y0oNY_3AZGyrUhkyF-1">
                    <mxGeometry x="292" y="1083" width="100" height="40" as="geometry"/>
                </mxCell>
            </root>
        </mxGraphModel>
    </diagram>
</mxfile>